# xmcd
#
# Track frame offsets:
#	150
#	9347
#	15276
#	22111
#	26657
#	34387
#	44631
#	51024
#	61863
#	77623
#	99111
#	117262
#	133814
#	162418
#	190280
#	196796
#	208445
#	230194
#	242876
#	274789
#	297230
#
# Disc length: 4274 seconds
#
# Revision: 0
# Processed by: cddbd v1.5.2PL0 Copyright (c) Steve Scherf et al.
# Submitted via: EZCDAudioConverter 2.1.7.1
#
DISCID=2b10b015
DTITLE=Crowded House - Temple Of Low Men 2/2
DYEAR=1900
DGENRE=
TTITLE0=Whispers And Moans [Home Demo]
TTITLE1=Never Be The Same [Home Demo]
TTITLE2=Dream On [Home Demo]
TTITLE3=Never Been Born [Rehearsal Excerpt]
TTITLE4=Think I'm Gonna Change [Home Demo]
TTITLE5=Into Temptation [Home Demo]
TTITLE6=Fire Will Keep Me Warm [Home Demo]
TTITLE7=Love This Life [Home Demo]
TTITLE8=Sister Madly [Studio Out-Takes]
TTITLE9=Mansion In The Slums [Live]
TTITLE10=This Is Massive [Live]
TTITLE11=Love This Life [Live]
TTITLE12=In The Lowlands [Live]
TTITLE13=I Feel Possessed [Live]
TTITLE14=Burnt Out Tree [Live]
TTITLE15=Mr. Tambourine Man [Live]
TTITLE16=Eight Miles High [Live]
TTITLE17=So You Want To Be A Rock’n’Roll Star [Live]
TTITLE18=When You Come [Live]
TTITLE19=Sister Madly [Live]
TTITLE20=Better Be Home Soon [Live]
EXTD=
EXTT0=
EXTT1=
EXTT2=
EXTT3=
EXTT4=
EXTT5=
EXTT6=
EXTT7=
EXTT8=
EXTT9=
EXTT10=
EXTT11=
EXTT12=
EXTT13=
EXTT14=
EXTT15=
EXTT16=
EXTT17=
EXTT18=
EXTT19=
EXTT20=
PLAYORDER=
